<svg width="512" height="512" viewBox="0 0 512 512" fill="none" xmlns="http://www.w3.org/2000/svg">
<path d="M256 0C68 0 0 68 0 256C0 444 68 512 256 512C444 512 512 444 512 256C512 68 444 0 256 0Z" fill="#0080FF"/>
<path d="M160 208C160 181.49 181.49 160 208 160H368C394.51 160 416 181.49 416 208V304C416 330.51 394.51 352 368 352H208C181.49 352 160 330.51 160 304V208Z" fill="white"/>
<path d="M128 208C128 181.49 149.49 160 176 160H336C362.51 160 384 181.49 384 208V304C384 330.51 362.51 352 336 352H176C149.49 352 128 330.51 128 304V208Z" fill="#0000FF"/>
<path d="M96 208C96 181.49 117.49 160 144 160H304C330.51 160 352 181.49 352 208V304C352 330.51 330.51 352 304 352H144C117.49 352 96 330.51 96 304V208Z" fill="white"/>
<path d="M264 242.144C274.667 248.302 274.667 263.698 264 269.856L216 297.569C205.333 303.728 192 296.03 192 283.713V228.287C192 215.97 205.333 208.272 216 214.431L264 242.144Z" fill="#0000FF"/>
</svg>
